<svg width="259" height="494" viewBox="0 0 259 494" fill="none" xmlns="http://www.w3.org/2000/svg">
<g opacity="0.2">
<path opacity="0.3" d="M-223.23 395.766C-234.266 392.973 -243.636 387.311 -250.681 379.887C-265.102 364.486 -268.016 342.597 -258.341 321.073L-146.802 73.3901C-137.239 52.3085 -117.2 36.2288 -93.6574 30.4363C-69.6739 24.7556 -46.608 30.1237 -32.1876 45.5246L143.294 228.132C158.156 243.644 161.399 266.087 151.724 287.611C142.05 309.134 121.456 325.544 97.0315 331.113L-189.988 396.189C-200.93 398.59 -212.636 398.447 -223.23 395.766ZM-70.879 57.3535C-76.6175 55.901 -83.1329 55.6621 -89.6541 57.3019C-102.696 60.5814 -113.325 69.1721 -118.11 80.6523L-229.649 328.335C-234.874 339.704 -233.144 351.423 -225.439 359.954C-221.807 364.163 -216.404 366.941 -210.666 368.393C-204.927 369.846 -198.853 369.973 -192.774 368.221L94.2465 303.145C107.177 300.307 118.359 291.387 123.585 280.018C128.811 268.65 127.192 256.489 118.934 248.288L-56.1058 65.7931C-60.1788 61.4719 -65.1405 58.8059 -70.879 57.3535Z" fill="#D86C18"/>
<path opacity="0.6" d="M-194.537 403.028C-205.573 400.235 -214.943 394.573 -221.989 387.149C-236.409 371.748 -239.323 349.859 -229.648 328.335L-118.11 80.6522C-108.546 59.5707 -88.5068 43.4909 -64.9647 37.6985C-40.9811 32.0178 -17.9153 37.3858 -3.49494 52.7867L171.986 235.394C186.848 250.906 190.092 273.349 180.417 294.873C170.742 316.396 150.149 332.806 125.724 338.375L-161.296 403.451C-172.678 405.74 -184.385 405.598 -194.537 403.028ZM-42.1863 64.6157C-47.9248 63.1632 -54.4402 62.9243 -60.9613 64.564C-74.0037 67.8435 -84.6326 76.4343 -89.4171 87.9145L-200.956 335.598C-206.182 346.966 -204.451 358.685 -196.746 367.216C-193.115 371.425 -187.712 374.203 -181.973 375.655C-176.235 377.108 -170.16 377.235 -164.081 375.484L122.939 310.407C135.869 307.57 147.052 298.649 152.278 287.28C157.503 275.912 155.884 263.751 147.626 255.551L-27.4131 73.0552C-31.4861 68.734 -36.4478 66.0681 -42.1863 64.6157Z" fill="#E36504"/>
<path d="M-165.845 410.29C-176.881 407.497 -186.251 401.835 -193.296 394.411C-207.717 379.011 -210.631 357.121 -200.956 335.598L-89.4172 87.9145C-79.8541 66.8329 -59.8144 50.7532 -36.2723 44.9608C-12.2887 39.2801 10.7771 44.6481 25.1975 60.049L200.679 242.656C215.54 258.169 218.784 280.612 209.109 302.135C199.434 323.658 178.841 340.068 154.416 345.637L-132.603 410.713C-143.986 413.003 -155.692 412.86 -165.845 410.29ZM-13.4939 71.8779C-19.2324 70.4255 -25.7478 70.1866 -32.2689 71.8263C-45.3112 75.1058 -55.9402 83.6966 -60.7247 95.1767L-172.263 342.86C-177.489 354.228 -175.758 365.947 -168.054 374.478C-164.422 378.688 -159.019 381.465 -153.281 382.918C-147.542 384.37 -141.468 384.497 -135.388 382.746L151.631 317.67C164.562 314.832 175.744 305.911 180.97 294.543C186.196 283.174 184.577 271.013 176.319 262.813L1.27935 80.3175C-3.23509 75.8846 -8.1968 73.2186 -13.4939 71.8779Z" fill="#FFB30F"/>
</g>
</svg>
