<svg width="264" height="588" viewBox="0 0 264 588" fill="none" xmlns="http://www.w3.org/2000/svg">
<g opacity="0.2">
<path opacity="0.3" d="M26.7011 243.612C21.0093 233.754 18.5352 223.089 18.9449 212.863C19.9313 191.787 33.5913 174.437 55.7661 166.366L311.088 73.6377C332.868 65.795 358.367 68.9499 378.933 81.788C399.727 95.0204 411.961 115.298 410.974 136.373L402.416 389.486C401.658 410.955 387.831 428.928 365.656 436.999C343.481 445.069 317.36 441.748 296.338 428.121L49.5745 267.737C40.2248 261.568 32.1653 253.076 26.7011 243.612ZM375.519 116.884C372.559 111.758 368.188 106.92 362.466 103.389C351.021 96.3256 337.452 94.6956 325.887 99.2698L70.5648 191.998C58.7716 196.178 51.5774 205.59 50.8338 217.06C50.3481 222.599 52.1239 228.409 55.0837 233.535C58.0434 238.661 62.1871 243.104 67.6815 246.242L314.445 406.625C325.495 413.916 339.686 415.713 351.48 411.533C363.273 407.353 370.862 397.714 370.983 386.076L379.769 133.359C380.027 127.426 378.478 122.01 375.519 116.884Z" fill="#D73131"/>
<path opacity="0.6" d="M41.4998 269.244C35.808 259.386 33.3339 248.721 33.7436 238.495C34.73 217.42 48.39 200.069 70.5648 191.998L325.887 99.2698C347.667 91.427 373.166 94.5819 393.732 107.42C414.526 120.652 426.759 140.93 425.773 162.005L417.215 415.117C416.456 436.587 402.629 454.56 380.454 462.63C358.28 470.701 332.158 467.379 311.137 453.753L64.3731 293.369C54.7958 286.806 46.7362 278.314 41.4998 269.244ZM390.317 142.516C387.358 137.39 382.986 132.552 377.264 129.021C365.82 121.958 352.251 120.328 340.685 124.902L85.3635 217.63C73.5703 221.81 66.3761 231.222 65.6324 242.692C65.1468 248.231 66.9226 254.041 69.8823 259.167C72.8421 264.293 76.9857 268.736 82.4801 271.874L329.244 432.257C340.293 439.548 354.485 441.345 366.278 437.165C378.071 432.985 385.66 423.345 385.781 411.708L394.567 158.991C394.825 153.058 393.277 147.642 390.317 142.516Z" fill="#D73131"/>
<path d="M56.2985 294.877C50.6067 285.018 48.1326 274.353 48.5423 264.127C49.5287 243.052 63.1887 225.701 85.3635 217.63L340.685 124.902C362.466 117.059 387.965 120.214 408.531 133.052C429.325 146.285 441.558 166.562 440.572 187.638L432.014 440.75C431.255 462.219 417.428 480.192 395.253 488.263C373.078 496.333 346.957 493.012 325.936 479.385L79.1718 319.001C69.5945 312.438 61.535 303.946 56.2985 294.877ZM405.116 168.148C402.156 163.022 397.785 158.184 392.063 154.653C380.619 147.59 367.05 145.96 355.484 150.534L100.162 243.263C88.369 247.442 81.1748 256.854 80.4311 268.325C79.9455 273.863 81.7213 279.673 84.6811 284.799C87.6408 289.926 91.7844 294.369 97.2789 297.506L344.043 457.889C355.092 465.18 369.284 466.977 381.077 462.797C392.87 458.617 400.459 448.978 400.58 437.34L409.366 184.623C409.396 178.296 407.848 172.88 405.116 168.148Z" fill="#FF6332"/>
</g>
</svg>
