<svg width="197" height="49" viewBox="0 0 197 49" fill="none" xmlns="http://www.w3.org/2000/svg">
<path d="M110.171 24.6038C109.393 24.6038 108.666 25.2266 108.563 26.0052L107.629 31.2478C106.851 30.7288 105.917 30.4692 104.88 30.4692H103.065C99.9523 30.4692 96.9439 33.0127 96.4252 36.1271L95.4916 41.3696C94.921 44.4841 97.0477 47.0275 100.16 47.0275H101.975C103.065 47.0275 104.154 46.716 105.139 46.1451C105.243 46.6641 105.71 47.0275 106.28 47.0275C107.058 47.0275 107.785 46.4046 107.888 45.626L108.666 41.3696L109.6 36.1271L111.364 26.0052C111.467 25.2266 110.949 24.6038 110.171 24.6038ZM106.747 36.0752L105.814 41.3177C105.554 42.9268 103.998 44.2245 102.39 44.2245H100.627C99.0187 44.2245 97.9813 42.9268 98.2407 41.3177L99.1743 36.0752C99.4337 34.466 100.99 33.1684 102.598 33.1684H104.413C105.969 33.1684 107.058 34.518 106.747 36.0752Z" fill="black"/>
<path d="M134.912 30.4175H133.097C129.985 30.4175 126.976 32.9609 126.458 36.0753L125.524 41.3179C124.953 44.4323 127.08 46.9757 130.192 46.9757H132.008C135.12 46.9757 138.128 44.4323 138.647 41.3179L139.581 36.0753C140.099 32.9609 138.025 30.4175 134.912 30.4175ZM136.78 36.0753L135.846 41.3179C135.587 42.927 134.031 44.2247 132.423 44.2247H130.607C128.999 44.2247 127.962 42.927 128.221 41.3179L129.155 36.0753C129.414 34.4662 130.97 33.1685 132.578 33.1685H134.394C136.002 33.1685 137.091 34.5181 136.78 36.0753Z" fill="black"/>
<path d="M120.181 30.4175H118.366C115.254 30.4175 112.245 32.9609 111.727 36.0753L110.793 41.3179C110.223 44.4323 112.349 46.9757 115.461 46.9757H117.277C118.625 46.9757 119.974 46.5086 121.115 45.6781C121.789 45.2109 121.997 44.3285 121.634 43.7575C121.271 43.1866 120.389 43.0827 119.715 43.6018C119.144 44.0171 118.418 44.2766 117.744 44.2766H115.928C114.32 44.2766 113.283 42.9789 113.542 41.3698L113.594 40.9546C114.372 41.4736 115.306 41.7332 116.343 41.7332H118.159C121.271 41.7332 124.279 39.1897 124.798 36.0753C125.317 32.9609 123.294 30.4175 120.181 30.4175ZM122.049 36.0753C121.789 37.6844 120.233 38.9821 118.625 38.9821H116.81C115.202 38.9821 114.165 37.6844 114.424 36.0753C114.683 34.4662 116.239 33.1685 117.847 33.1685H119.663C121.271 33.1685 122.36 34.5181 122.049 36.0753Z" fill="black"/>
<path d="M89.9935 30.5212C89.3192 30.2097 88.4893 30.5731 88.0744 31.2998L81.8501 41.9406L79.4122 31.2998C79.2566 30.5731 78.5304 30.2616 77.7524 30.5212C76.9743 30.8326 76.5075 31.6112 76.6631 32.3379L79.8271 46.1451C79.8271 46.197 79.879 46.2489 79.879 46.3008C79.879 46.3008 79.879 46.3008 79.879 46.3527C79.879 46.4046 79.9309 46.4565 79.9828 46.5084C80.0346 46.5603 80.0346 46.6123 80.0865 46.6123C80.0865 46.6123 80.0865 46.6123 80.0865 46.6642C80.1384 46.7161 80.1902 46.7161 80.1902 46.768C80.2421 46.8199 80.294 46.8199 80.3458 46.8718C80.3458 46.8718 80.3458 46.8718 80.3977 46.8718H80.4496C80.5015 46.8718 80.5014 46.9237 80.5533 46.9237C80.6052 46.9237 80.6571 46.9756 80.7089 46.9756C80.7089 46.9756 80.7089 46.9756 80.7608 46.9756C80.8127 46.9756 80.8645 46.9756 80.9164 46.9756C80.9683 46.9756 81.0201 46.9756 81.1239 46.9756H81.1757C81.2276 46.9756 81.2795 46.9756 81.3832 46.9237C81.4351 46.9237 81.487 46.9237 81.487 46.8718H81.5388H81.5907C81.6426 46.8199 81.6944 46.8199 81.7463 46.768C81.7982 46.7161 81.85 46.7161 81.9019 46.6642C81.9019 46.6642 81.9019 46.6642 81.9538 46.6123C82.0057 46.5604 82.0575 46.5084 82.1094 46.5084C82.1613 46.4565 82.2131 46.4046 82.265 46.3527C82.265 46.3527 82.265 46.3527 82.3169 46.3008C82.3687 46.2489 82.4206 46.197 82.4206 46.1451L90.4604 32.3379C90.8234 31.6112 90.616 30.8326 89.9935 30.5212Z" fill="black"/>
<path d="M92.8462 36.0752C92.0682 36.0752 91.342 36.6981 91.2382 37.4767L89.7859 45.626C89.6303 46.4046 90.149 47.0275 90.927 47.0275C91.7051 47.0275 92.4312 46.4046 92.535 45.626L93.9873 37.4767C94.1429 36.6981 93.6242 36.0752 92.8462 36.0752Z" fill="black"/>
<path d="M93.8837 30.4175C93.1056 30.4175 92.3795 31.0404 92.2757 31.819L92.0164 33.2724C91.8608 34.051 92.3795 34.6738 93.1575 34.6738C93.9355 34.6738 94.6617 34.051 94.7655 33.2724L95.0248 31.819C95.1285 31.0404 94.6098 30.4175 93.8837 30.4175Z" fill="black"/>
<path d="M11.2038 5.86548H9.38838C8.29912 5.86548 7.20987 6.17692 6.22435 6.74789C6.12061 6.22883 5.65378 5.86548 5.08322 5.86548C4.30518 5.86548 3.57901 6.48836 3.47527 7.26696L2.69723 11.5233L1.81545 16.7659L1.83266e-05 26.8877C-0.15559 27.6663 0.363104 28.2892 1.14115 28.2892C1.91919 28.2892 2.64536 27.6663 2.7491 26.8877L3.68275 21.6451C4.46079 22.1642 5.39444 22.4237 6.43182 22.4237H8.24725C11.3594 22.4237 14.3678 19.8803 14.8865 16.7659L15.8202 11.5233C16.3908 8.357 14.316 5.86548 11.2038 5.86548ZM13.0711 11.4714L12.1375 16.714C11.8781 18.3231 10.322 19.6208 8.71408 19.6208H6.89865C5.2907 19.6208 4.25331 18.3231 4.51266 16.714L5.44631 11.4714C5.70565 9.8623 7.26174 8.56463 8.86969 8.56463H10.6851C12.2931 8.61654 13.3823 9.91421 13.0711 11.4714Z" fill="black"/>
<path d="M62.3471 0C61.5691 0 60.8429 0.622881 60.7392 1.40148L59.8055 6.64407C59.0275 6.125 58.0938 5.86547 57.0565 5.86547H55.241C52.1289 5.86547 49.1204 8.4089 48.6017 11.5233L47.6681 16.7659C47.0975 19.8803 49.2242 22.4237 52.3363 22.4237H54.1518C55.241 22.4237 56.3303 22.1123 57.3158 21.5413C57.4195 22.0604 57.8864 22.4237 58.4569 22.4237C59.235 22.4237 59.9611 21.8008 60.0649 21.0222L60.8429 16.7659L61.7766 11.5233L63.5401 1.40148C63.6439 0.622881 63.1252 0 62.3471 0ZM58.9238 11.4714L57.9901 16.714C57.7308 18.3231 56.1747 19.6208 54.5667 19.6208H52.7513C51.1433 19.6208 50.106 18.3231 50.3653 16.714L51.3508 11.4714C51.6102 9.86229 53.1662 8.56462 54.7742 8.56462H56.5896C58.1457 8.61652 59.235 9.91419 58.9238 11.4714Z" fill="black"/>
<path d="M41.7549 5.86548H39.9395C36.8274 5.86548 33.8189 8.40891 33.3002 11.5233L32.3666 16.7659C31.796 19.8803 33.9227 22.4237 37.0348 22.4237H38.8503C41.9624 22.4237 44.9708 19.8803 45.4895 16.7659L46.4232 11.5233C46.9419 8.357 44.8671 5.86548 41.7549 5.86548ZM43.6741 11.4714L42.7405 16.714C42.4811 18.3231 40.925 19.6208 39.3171 19.6208H37.5017C35.8937 19.6208 34.8563 18.3231 35.1157 16.714L36.0493 11.4714C36.3087 9.8623 37.8647 8.56463 39.4727 8.56463H41.2881C42.8442 8.61654 43.9335 9.91421 43.6741 11.4714Z" fill="black"/>
<path d="M26.4535 5.86548H24.6381C23.5488 5.86548 22.4596 6.17692 21.4741 6.74789C21.3703 6.22883 20.9035 5.86548 20.3329 5.86548C19.5549 5.86548 18.8287 6.48836 18.725 7.26696L16.2871 21.0742C16.1315 21.8528 16.6502 22.4756 17.4283 22.4756C18.2063 22.4756 18.9325 21.8528 19.0362 21.0742L20.696 11.5233C20.9554 9.91421 22.5115 8.61654 24.1194 8.61654H25.9348C27.5428 8.61654 28.5802 9.91421 28.3208 11.5233C28.1652 12.3019 28.6839 12.9248 29.462 12.9248C30.24 12.9248 30.9662 12.3019 31.0699 11.5233C31.6923 8.357 29.5657 5.86548 26.4535 5.86548Z" fill="black"/>
<path d="M103.946 22.4238H106.28C107.058 22.4238 107.681 21.8009 107.681 21.0223C107.681 20.2437 107.058 19.6208 106.28 19.6208C106.28 19.6208 106.28 19.6208 106.229 19.6208H104.413C102.805 19.6208 101.768 18.3232 102.027 16.714L102.079 16.2988C102.857 16.8179 103.791 17.0774 104.828 17.0774H106.643C109.756 17.0774 112.764 14.534 113.283 11.4196C113.853 8.30515 111.727 5.76172 108.615 5.76172H106.799C103.687 5.76172 100.679 8.30515 100.16 11.4196L99.2262 16.6621C98.7593 19.8804 100.834 22.4238 103.946 22.4238ZM103.013 11.4715C103.272 9.86235 104.828 8.56468 106.436 8.56468H108.251C109.859 8.56468 110.897 9.86235 110.637 11.4715C110.378 13.0806 108.822 14.3782 107.214 14.3782H105.399C103.791 14.3782 102.701 13.0806 103.013 11.4715Z" fill="black"/>
<path d="M83.8211 22.4236C84.5991 22.4236 85.3253 21.8008 85.429 21.0222L87.0888 11.4713C87.3482 9.86221 88.9043 8.56454 90.5122 8.56454H92.3277C93.9356 8.56454 94.973 9.86221 94.7137 11.4713L93.0538 21.0222C92.8982 21.8008 93.4169 22.4236 94.195 22.4236C94.973 22.4236 95.6992 21.8008 95.8029 21.0222L97.4627 11.4713C98.0333 8.35691 95.9067 5.81348 92.7945 5.81348H90.9791C89.8898 5.81348 88.8005 6.12492 87.815 6.69589C87.7113 6.17682 87.2445 5.81348 86.6739 5.81348C85.8959 5.81348 85.1697 6.43636 85.0659 7.21496L82.6281 21.0222C82.5762 21.8008 83.0949 22.4236 83.8211 22.4236Z" fill="black"/>
<path d="M126.924 21.0222L128.584 11.4713C128.844 9.86221 130.4 8.56454 132.008 8.56454H133.823C135.431 8.56454 136.468 9.86221 136.209 11.4713L134.549 21.0222C134.394 21.8008 134.912 22.4236 135.69 22.4236C136.468 22.4236 137.194 21.8008 137.298 21.0222L138.958 11.4713C139.529 8.35691 137.402 5.81348 134.29 5.81348H132.474C130.763 5.81348 129.103 6.59208 127.858 7.78593C127.028 6.59208 125.628 5.81348 123.916 5.81348H122.1C121.011 5.81348 119.922 6.12492 118.936 6.69589C118.833 6.17682 118.366 5.81348 117.795 5.81348C117.017 5.81348 116.291 6.43636 116.187 7.21496L113.75 21.0222C113.594 21.8008 114.113 22.4236 114.891 22.4236C115.669 22.4236 116.395 21.8008 116.499 21.0222L118.158 11.4713C118.418 9.86221 119.974 8.56454 121.582 8.56454H123.397C125.005 8.56454 126.043 9.86221 125.783 11.4713L124.123 21.0222C123.968 21.8008 124.486 22.4236 125.265 22.4236C126.094 22.4236 126.821 21.8008 126.924 21.0222Z" fill="black"/>
<path d="M77.3891 5.9174C76.7148 5.60596 75.8849 5.9693 75.4699 6.696L69.2456 17.3369L66.8077 6.696C66.6521 5.9693 65.9259 5.65786 65.1479 5.9174C64.3698 6.22884 63.903 7.00744 64.0586 7.73413L67.2227 21.5413C67.2227 21.5932 67.2745 21.6452 67.2745 21.6971C67.2745 21.6971 67.2745 21.6971 67.2745 21.749C67.2745 21.8009 67.3264 21.8528 67.3783 21.9047C67.4301 21.9566 67.4301 22.0085 67.482 22.0085C67.482 22.0085 67.482 22.0085 67.482 22.0604C67.5339 22.1123 67.5857 22.1123 67.5857 22.1642C67.6376 22.2161 67.6895 22.2161 67.7414 22.268C67.7414 22.268 67.7414 22.268 67.7932 22.268H67.8451C67.897 22.268 67.897 22.3199 67.9488 22.3199C68.0007 22.3199 68.0526 22.3718 68.1044 22.3718C68.1044 22.3718 68.1044 22.3718 68.1563 22.3718C68.2082 22.3718 68.26 22.3718 68.3119 22.3718C68.3638 22.3718 68.4157 22.3718 68.5194 22.3718H68.5713C68.6231 22.3718 68.675 22.3718 68.7787 22.3199C68.8306 22.3199 68.8825 22.3199 68.8825 22.268H68.9343H68.9862C69.0381 22.2161 69.09 22.2161 69.1418 22.1642C69.1937 22.1123 69.2456 22.1123 69.2974 22.0604C69.2974 22.0604 69.2974 22.0604 69.3493 22.0085C69.4012 21.9566 69.453 21.9047 69.5049 21.9047C69.5568 21.8528 69.6087 21.8009 69.6605 21.749C69.6605 21.749 69.6605 21.749 69.7124 21.6971C69.7643 21.6452 69.8161 21.5932 69.8161 21.5413L77.8559 7.73413C78.2708 7.05935 78.0634 6.22884 77.3891 5.9174Z" fill="black"/>
<path d="M78.3748 22.4237C79.1528 22.4237 79.879 21.8008 79.9827 21.0222L81.5388 12.3019C81.6944 11.5233 81.1757 10.9004 80.3977 10.9004C79.6197 10.9004 78.8935 11.5233 78.7897 12.3019L77.2337 21.0222C77.0781 21.8008 77.5968 22.4237 78.3748 22.4237Z" fill="black"/>
<path d="M80.5533 10.0181C81.3313 10.0181 82.0575 9.39519 82.1612 8.61659L82.4206 7.1632C82.5762 6.3846 82.0575 5.76172 81.2794 5.76172C80.5014 5.76172 79.7752 6.3846 79.6715 7.1632L79.4121 8.61659C79.2565 9.4471 79.7752 10.0181 80.5533 10.0181Z" fill="black"/>
<path d="M142.122 20.5032C142.122 20.3994 142.07 20.3475 142.019 20.2437C141.967 20.1918 141.915 20.088 141.863 20.0361C141.811 19.9842 141.759 19.9323 141.707 19.8803C141.655 19.8284 141.552 19.7765 141.5 19.7765C141.448 19.7246 141.344 19.7246 141.24 19.6727C141.085 19.6208 140.877 19.6208 140.722 19.6727C140.618 19.6727 140.514 19.7246 140.462 19.7765C140.359 19.8284 140.307 19.8284 140.203 19.8803C140.099 19.9323 140.047 19.9842 139.944 20.0361C139.892 20.088 139.788 20.1918 139.736 20.2437C139.684 20.2956 139.633 20.3994 139.581 20.5032C139.529 20.607 139.477 20.6589 139.477 20.7628C139.425 20.8666 139.425 20.9185 139.425 21.0223C139.425 21.1261 139.425 21.178 139.425 21.2818C139.425 21.3856 139.425 21.4376 139.477 21.5414C139.477 21.6452 139.529 21.6971 139.581 21.8009C139.633 21.8528 139.684 21.9566 139.736 22.0085C139.788 22.0604 139.84 22.1123 139.892 22.1642C139.944 22.2162 140.047 22.2681 140.099 22.2681C140.151 22.32 140.255 22.32 140.359 22.3719C140.462 22.3719 140.514 22.4238 140.618 22.4238C140.981 22.4238 141.344 22.2681 141.655 22.0085C141.707 21.9566 141.811 21.8528 141.863 21.8009C141.915 21.749 141.967 21.6452 142.019 21.5414C142.07 21.4376 142.122 21.3856 142.122 21.2818C142.174 21.178 142.174 21.1261 142.174 21.0223C142.174 20.9185 142.174 20.8666 142.174 20.7628C142.174 20.6589 142.174 20.607 142.122 20.5032Z" fill="black"/>
<path opacity="0.3" d="M151.77 49C150.473 49 149.28 48.6367 148.295 48.0138C146.272 46.7161 145.338 44.3803 145.805 41.7331L151.199 11.2638C151.666 8.66847 153.43 6.33266 155.868 5.035C158.357 3.73733 161.055 3.68542 163.077 4.98309L187.56 20.2437C189.635 21.5414 190.62 23.9291 190.153 26.5763C189.687 29.2236 187.871 31.6113 185.329 32.9089L155.453 48.1176C154.312 48.6886 153.015 49 151.77 49ZM159.135 7.3708C158.461 7.3708 157.735 7.52652 157.061 7.88987C155.712 8.61656 154.778 9.86233 154.571 11.2638L149.176 41.7331C148.917 43.1346 149.436 44.3803 150.525 45.107C151.044 45.4704 151.718 45.6261 152.392 45.6261C153.067 45.6261 153.741 45.4704 154.363 45.107L184.24 29.8983C185.589 29.2236 186.574 27.9259 186.834 26.5244C187.093 25.1229 186.574 23.8252 185.433 23.1505L161.003 7.88987C160.432 7.52652 159.81 7.3708 159.135 7.3708Z" fill="url(#paint0_linear)"/>
<path opacity="0.6" d="M155.142 49C153.845 49 152.652 48.6367 151.666 48.0138C149.643 46.7161 148.71 44.3803 149.177 41.7331L154.571 11.2638C155.038 8.66847 156.801 6.33266 159.239 5.035C161.729 3.73733 164.426 3.68542 166.449 4.98309L190.931 20.2437C193.006 21.5414 193.992 23.9291 193.525 26.5763C193.058 29.2236 191.243 31.6113 188.701 32.9089L158.824 48.1176C157.631 48.6886 156.335 49 155.142 49ZM162.507 7.3708C161.833 7.3708 161.106 7.52652 160.432 7.88987C159.084 8.61656 158.15 9.86233 157.942 11.2638L152.548 41.7331C152.289 43.1346 152.807 44.3803 153.897 45.107C154.415 45.4704 155.09 45.6261 155.764 45.6261C156.438 45.6261 157.113 45.4704 157.735 45.107L187.612 29.8983C188.96 29.2236 189.946 27.9259 190.205 26.5244C190.465 25.1229 189.946 23.8252 188.805 23.1505L164.374 7.88987C163.804 7.52652 163.181 7.3708 162.507 7.3708Z" fill="url(#paint1_linear)"/>
<path d="M158.513 49C157.216 49 156.023 48.6367 155.038 48.0138C153.015 46.7161 152.081 44.3803 152.548 41.7331L157.942 11.2638C158.409 8.66847 160.173 6.33266 162.611 5.035C165.1 3.73733 167.797 3.68542 169.82 4.98309L194.303 20.2437C196.378 21.5414 197.363 23.9291 196.896 26.5763C196.429 29.2236 194.614 31.6113 192.072 32.9089L162.196 48.1176C161.003 48.6886 159.706 49 158.513 49ZM165.878 7.3708C165.204 7.3708 164.478 7.52652 163.804 7.88987C162.455 8.61656 161.521 9.86233 161.314 11.2638L155.919 41.7331C155.66 43.1346 156.179 44.3803 157.268 45.107C157.787 45.4704 158.461 45.6261 159.135 45.6261C159.81 45.6261 160.484 45.4704 161.106 45.107L190.983 29.8983C192.332 29.2236 193.317 27.9259 193.577 26.5244C193.836 25.1229 193.317 23.8252 192.176 23.1505L167.746 7.88987C167.123 7.52652 166.501 7.3708 165.878 7.3708Z" fill="url(#paint2_linear)"/>
<defs>
<linearGradient id="paint0_linear" x1="190.992" y1="3.14081" x2="137.095" y2="44.9465" gradientUnits="userSpaceOnUse">
<stop stop-color="#FF0067"/>
<stop offset="1" stop-color="#FF3248"/>
</linearGradient>
<linearGradient id="paint1_linear" x1="192.25" y1="4.76316" x2="138.354" y2="46.5688" gradientUnits="userSpaceOnUse">
<stop stop-color="#FF0067"/>
<stop offset="1" stop-color="#FF3248"/>
</linearGradient>
<linearGradient id="paint2_linear" x1="193.51" y1="6.38696" x2="139.613" y2="48.1926" gradientUnits="userSpaceOnUse">
<stop stop-color="#FF0067"/>
<stop offset="1" stop-color="#FF3248"/>
</linearGradient>
</defs>
</svg>
